# Blender v2.77 (sub 0) OBJ File: 'Sword.blend'
# www.blender.org
mtllib Blade.mtl
o Cube.001_Cube.002
v 0.000000 -13.000000 0.600000
v 0.000000 -13.000000 -0.600000
v 0.000000 11.699999 -0.600000
v 0.080000 11.699999 0.200000
v 0.000000 11.699999 0.600000
v 0.080000 11.699999 -0.200000
v -0.080000 -13.000000 -0.200000
v -0.080000 -13.000000 0.200000
v 0.080000 -13.000000 0.200000
v 0.080000 -13.000000 -0.200000
v -0.080000 11.699999 0.200000
v -0.080000 11.699999 -0.200000
v 0.000000 12.349999 0.540000
v -0.080000 12.349999 -0.180000
v 0.080000 12.349999 -0.180000
v 0.000000 12.349999 -0.540000
v -0.080000 12.349999 0.180000
v 0.080000 12.349999 0.180000
v 0.000000 12.674999 0.432000
v -0.080000 12.674999 -0.144000
v 0.080000 12.674999 -0.144000
v 0.000000 12.674999 -0.432000
v -0.080000 12.674999 0.144000
v 0.080000 12.674999 0.144000
v 0.000000 13.337502 0.000000
vt 0.6939 0.5261
vt 0.4286 1.0000
vt 0.4286 0.5261
vt 0.4245 0.5136
vt 0.3469 0.5261
vt 0.3510 0.5136
vt 0.9592 0.5073
vt 0.6939 0.9813
vt 0.6939 0.5073
vt 0.7163 0.1291
vt 0.4898 0.0000
vt 0.7347 0.1153
vt 0.0000 0.4151
vt 0.0000 0.1153
vt 0.2449 0.0000
vt 0.3673 0.3920
vt 0.1224 0.5073
vt 0.3673 0.0922
vt 0.0816 0.9813
vt 0.3469 0.5073
vt 0.3469 0.9813
vt 0.0000 0.9813
vt 0.0816 0.5073
vt 0.7347 0.4739
vt 1.0000 0.0000
vt 1.0000 0.4739
vt 0.3469 1.0000
vt 0.0041 0.9938
vt 0.0776 0.9938
vt 0.3857 0.3782
vt 0.6122 0.5073
vt 0.3673 0.3920
vt 0.7347 0.4151
vt 0.7286 0.4197
vt 0.3673 0.0922
vt 0.3735 0.0876
vt 0.4188 0.3533
vt 0.3845 0.0793
vt 0.6833 0.1540
vt 0.7176 0.4280
vt 0.6184 0.5027
vt 0.0114 1.0000
vt 0.0702 1.0000
vt 0.4837 0.0046
vt 0.4171 0.5073
vt 0.3584 0.5073
vt 0.5510 0.2537
vt 0.4727 0.0129
vt 0.6294 0.4944
vt 0.6939 1.0000
vt 0.9592 0.9813
vt 0.0000 0.5073
vt 0.7347 0.0000
vn -0.9806 0.0000 -0.1961
vn -1.0000 0.0000 0.0000
vn 0.9806 0.0000 0.1961
vn -0.9804 0.0181 0.1961
vn 0.0000 -1.0000 0.0000
vn 0.9806 0.0000 -0.1961
vn 1.0000 0.0000 0.0000
vn -0.9806 0.0000 0.1961
vn 0.9804 0.0181 -0.1961
vn 0.9762 0.0067 0.2169
vn -0.9762 0.0067 -0.2169
vn -0.9631 0.0296 -0.2675
vn 0.9631 0.0296 0.2675
vn 0.9737 0.0719 -0.2164
vn -0.9737 0.0719 0.2164
vn -0.9928 0.1199 0.0000
vn -0.9492 0.1719 0.2637
vn 0.9928 0.1199 0.0000
vn 0.9492 0.1719 -0.2637
vn 0.9492 0.1719 0.2637
vn -0.9492 0.1719 -0.2637
vn -0.9762 0.0067 0.2169
vn 0.9762 0.0067 -0.2169
vn 0.9804 0.0181 0.1961
vn -0.9804 0.0181 -0.1961
vn -0.9737 0.0719 -0.2164
vn 0.9737 0.0719 0.2164
vn 0.9631 0.0296 -0.2675
vn -0.9631 0.0296 0.2675
usemtl None
s off
f 3/1/1 7/2/1 12/3/1
f 14/4/2 11/5/2 17/6/2
f 5/7/3 9/8/3 4/9/3
f 13/10/4 11/11/4 5/12/4
f 7/13/5 2/14/5 10/15/5
f 1/16/5 8/17/5 9/18/5
f 7/13/5 9/18/5 8/17/5
f 6/19/6 2/20/6 3/21/6
f 4/22/7 10/23/7 6/19/7
f 11/24/8 1/25/8 5/26/8
f 12/3/2 8/27/2 11/5/2
f 18/28/7 6/19/7 15/29/7
f 16/30/9 6/31/9 3/32/9
f 13/10/10 4/33/10 18/34/10
f 16/30/11 12/35/11 14/36/11
f 22/37/12 14/36/12 20/38/12
f 19/39/13 18/34/13 24/40/13
f 22/37/14 15/41/14 16/30/14
f 24/42/7 15/29/7 21/43/7
f 19/39/15 17/44/15 13/10/15
f 20/45/2 17/6/2 23/46/2
f 25/47/16 20/38/16 23/48/16
f 25/47/17 23/48/17 19/39/17
f 25/47/18 24/40/18 21/49/18
f 25/47/19 21/49/19 22/37/19
f 25/47/20 19/39/20 24/40/20
f 25/47/21 22/37/21 20/38/21
f 3/1/1 2/50/1 7/2/1
f 14/4/2 12/3/2 11/5/2
f 5/7/3 1/51/3 9/8/3
f 13/10/22 17/44/22 11/11/22
f 7/13/5 10/15/5 9/18/5
f 6/19/6 10/23/6 2/20/6
f 4/22/7 9/52/7 10/23/7
f 11/24/8 8/53/8 1/25/8
f 12/3/2 7/2/2 8/27/2
f 18/28/7 4/22/7 6/19/7
f 16/30/23 15/41/23 6/31/23
f 13/10/24 5/12/24 4/33/24
f 16/30/25 3/32/25 12/35/25
f 22/37/26 16/30/26 14/36/26
f 19/39/27 13/10/27 18/34/27
f 22/37/28 21/49/28 15/41/28
f 24/42/7 18/28/7 15/29/7
f 19/39/29 23/48/29 17/44/29
f 20/45/2 14/4/2 17/6/2
